<?xml version="1.0" encoding="UTF-8" standalone="no"?>
<!-- Created with Inkscape (http://www.inkscape.org/) -->

<svg
   xmlns:dc="http://purl.org/dc/elements/1.1/"
   xmlns:cc="http://creativecommons.org/ns#"
   xmlns:rdf="http://www.w3.org/1999/02/22-rdf-syntax-ns#"
   xmlns:svg="http://www.w3.org/2000/svg"
   xmlns="http://www.w3.org/2000/svg"
   xmlns:sodipodi="http://sodipodi.sourceforge.net/DTD/sodipodi-0.dtd"
   xmlns:inkscape="http://www.inkscape.org/namespaces/inkscape"
   width="32px"
   height="32px"
   id="svg2985"
   version="1.1"
   inkscape:version="0.48.4 r9939"
   sodipodi:docname="saut-icon.svg">
  <defs
     id="defs2987" />
  <sodipodi:namedview
     id="base"
     pagecolor="#ffffff"
     bordercolor="#666666"
     borderopacity="1.0"
     inkscape:pageopacity="0.0"
     inkscape:pageshadow="2"
     inkscape:zoom="22.627417"
     inkscape:cx="6.0215442"
     inkscape:cy="17.157238"
     inkscape:current-layer="layer2"
     showgrid="false"
     inkscape:grid-bbox="true"
     inkscape:document-units="px"
     inkscape:snap-grids="true"
     inkscape:window-width="1920"
     inkscape:window-height="1017"
     inkscape:window-x="1912"
     inkscape:window-y="-8"
     inkscape:window-maximized="1"
     inkscape:snap-global="false">
    <inkscape:grid
       type="xygrid"
       id="grid3806" />
  </sodipodi:namedview>
  <metadata
     id="metadata2990">
    <rdf:RDF>
      <cc:Work
         rdf:about="">
        <dc:format>image/svg+xml</dc:format>
        <dc:type
           rdf:resource="http://purl.org/dc/dcmitype/StillImage" />
        <dc:title />
      </cc:Work>
    </rdf:RDF>
  </metadata>
  <g
     inkscape:groupmode="layer"
     id="layer2"
     inkscape:label="Слой"
     style="display:inline">
    <path
       style="font-size:medium;font-style:normal;font-variant:normal;font-weight:normal;font-stretch:normal;text-indent:0;text-align:start;text-decoration:none;line-height:normal;letter-spacing:normal;word-spacing:normal;text-transform:none;direction:ltr;block-progression:tb;writing-mode:lr-tb;text-anchor:start;baseline-shift:baseline;color:#000000;fill:#000000;fill-opacity:1;stroke:none;stroke-width:3.29999995;marker:none;visibility:visible;display:inline;overflow:visible;enable-background:accumulate;font-family:Sans;-inkscape-font-specification:Sans"
       d="M 8.3125 2.6875 C 5.9783551 4.0351192 4.0663692 5.9783551 2.71875 8.3125 C -1.5115766 15.639641 0.98535936 25.050923 8.3125 29.28125 L 9.96875 26.4375 C 4.1861244 23.0989 2.2238996 15.751376 5.5625 9.96875 C 6.6205677 8.1361229 8.1361229 6.6205678 9.96875 5.5625 L 8.3125 2.6875 z M 23.6875 2.6875 L 22.03125 5.5625 C 27.813875 8.9011007 29.776101 16.248625 26.4375 22.03125 C 25.379432 23.863877 23.863877 25.379432 22.03125 26.4375 L 23.6875 29.28125 C 26.021645 27.933631 27.964881 26.021645 29.3125 23.6875 C 33.542827 16.36036 31.01464 6.917827 23.6875 2.6875 z M 16 7.25 C 11.164743 7.25 7.25 11.164743 7.25 16 C 7.25 20.835258 11.164743 24.75 16 24.75 C 20.835258 24.75 24.75 20.835258 24.75 16 C 24.75 11.164743 20.835258 7.25 16 7.25 z "
       id="path2988" />
  </g>
</svg>
